<mxfile host="Electron" modified="2024-10-15T15:27:52.051Z" agent="Mozilla/5.0 (Windows NT 10.0; Win64; x64) AppleWebKit/537.36 (KHTML, like Gecko) draw.io/24.5.3 Chrome/124.0.6367.207 Electron/30.0.6 Safari/537.36" etag="DH6wjvGl4wLgPHlOgKh0" version="24.5.3" type="device">
  <diagram name="Page-1" id="z9dbeemGXEiqiLzxNQ0U">
    <mxGraphModel dx="1615" dy="955" grid="0" gridSize="10" guides="1" tooltips="1" connect="1" arrows="1" fold="1" page="1" pageScale="1" pageWidth="850" pageHeight="1100" background="#ffffff" math="0" shadow="0">
      <root>
        <mxCell id="0" />
        <mxCell id="1" parent="0" />
        <mxCell id="XdFvXGQpU-g9N7wpAjeI-62" value="" style="rounded=0;whiteSpace=wrap;html=1;fillColor=none;strokeColor=#000099;strokeWidth=3;" vertex="1" parent="1">
          <mxGeometry x="737" y="1638.5" width="521" height="183" as="geometry" />
        </mxCell>
        <mxCell id="XdFvXGQpU-g9N7wpAjeI-61" value="" style="rounded=0;whiteSpace=wrap;html=1;fillColor=none;strokeColor=#000099;strokeWidth=3;" vertex="1" parent="1">
          <mxGeometry x="737" y="1452.5" width="521" height="183" as="geometry" />
        </mxCell>
        <mxCell id="XdFvXGQpU-g9N7wpAjeI-60" value="" style="rounded=0;whiteSpace=wrap;html=1;fillColor=none;strokeColor=#000099;strokeWidth=3;" vertex="1" parent="1">
          <mxGeometry x="185" y="1642" width="521" height="183" as="geometry" />
        </mxCell>
        <mxCell id="XdFvXGQpU-g9N7wpAjeI-59" value="" style="rounded=0;whiteSpace=wrap;html=1;fillColor=none;strokeColor=#000099;strokeWidth=3;" vertex="1" parent="1">
          <mxGeometry x="185" y="1456" width="521" height="183" as="geometry" />
        </mxCell>
        <mxCell id="XdFvXGQpU-g9N7wpAjeI-3" value="" style="rounded=0;whiteSpace=wrap;html=1;fillColor=none;strokeColor=#000099;strokeWidth=3;movable=1;resizable=1;rotatable=1;deletable=1;editable=1;locked=0;connectable=1;" vertex="1" parent="1">
          <mxGeometry x="137.5" y="1135" width="1170" height="720" as="geometry" />
        </mxCell>
        <mxCell id="tQk5czNiYiRrhmJO2r0t-9" value="" style="rounded=0;whiteSpace=wrap;html=1;fillColor=none;strokeColor=#FF0000;strokeWidth=3;movable=1;resizable=1;rotatable=1;deletable=1;editable=1;locked=0;connectable=1;" parent="1" vertex="1">
          <mxGeometry x="40" y="130" width="1200" height="800" as="geometry" />
        </mxCell>
        <mxCell id="tQk5czNiYiRrhmJO2r0t-11" value="" style="rounded=0;whiteSpace=wrap;html=1;fillColor=none;strokeColor=#FF0000;strokeWidth=3;movable=1;resizable=1;rotatable=1;deletable=1;editable=1;locked=0;connectable=1;" parent="1" vertex="1">
          <mxGeometry x="65" y="210" width="1155" height="700" as="geometry" />
        </mxCell>
        <mxCell id="tQk5czNiYiRrhmJO2r0t-10" value="" style="rounded=0;whiteSpace=wrap;html=1;fillColor=none;strokeColor=#000099;strokeWidth=3;movable=1;resizable=1;rotatable=1;deletable=1;editable=1;locked=0;connectable=1;" parent="1" vertex="1">
          <mxGeometry x="60" y="200" width="1170" height="720" as="geometry" />
        </mxCell>
        <mxCell id="GhJrmts-B4TALpDch8Zh-2" value="" style="rounded=0;whiteSpace=wrap;html=1;fillColor=none;strokeColor=#000099;strokeWidth=3;movable=1;resizable=1;rotatable=1;deletable=1;editable=1;locked=0;connectable=1;" parent="1" vertex="1">
          <mxGeometry x="72" y="629" width="1134" height="268" as="geometry" />
        </mxCell>
        <mxCell id="GhJrmts-B4TALpDch8Zh-26" value="&lt;div&gt;&lt;b style=&quot;&quot;&gt;&lt;font color=&quot;#33001a&quot;&gt;Pie&lt;/font&gt;&lt;/b&gt;&lt;/div&gt;&lt;b style=&quot;&quot;&gt;&lt;font color=&quot;#33001a&quot;&gt;Attack&lt;/font&gt;&lt;/b&gt;&lt;div&gt;&lt;b style=&quot;&quot;&gt;&lt;font color=&quot;#33001a&quot;&gt;dist&lt;/font&gt;&lt;/b&gt;&lt;/div&gt;" style="rounded=0;whiteSpace=wrap;html=1;fillColor=none;strokeColor=#33001A;strokeWidth=3;movable=1;resizable=1;rotatable=1;deletable=1;editable=1;locked=0;connectable=1;" parent="1" vertex="1">
          <mxGeometry x="91" y="642" width="156" height="251" as="geometry" />
        </mxCell>
        <mxCell id="tQk5czNiYiRrhmJO2r0t-1" value="&lt;b style=&quot;&quot;&gt;&lt;font color=&quot;#000099&quot;&gt;Horizontal Rectangle&lt;/font&gt;&lt;/b&gt;" style="rounded=0;whiteSpace=wrap;html=1;fillColor=none;strokeColor=#000099;strokeWidth=3;" parent="1" vertex="1">
          <mxGeometry x="40" y="10" width="130" height="60" as="geometry" />
        </mxCell>
        <mxCell id="tQk5czNiYiRrhmJO2r0t-2" value="&lt;b style=&quot;&quot;&gt;&lt;font color=&quot;#ff0000&quot;&gt;Vertical Rectangle&lt;/font&gt;&lt;/b&gt;" style="rounded=0;whiteSpace=wrap;html=1;fillColor=none;strokeColor=#FF0000;strokeWidth=3;" parent="1" vertex="1">
          <mxGeometry x="200" y="10" width="130" height="60" as="geometry" />
        </mxCell>
        <mxCell id="tQk5czNiYiRrhmJO2r0t-3" value="&lt;b style=&quot;&quot;&gt;&lt;font color=&quot;#33001a&quot;&gt;Object&lt;/font&gt;&lt;/b&gt;" style="rounded=0;whiteSpace=wrap;html=1;fillColor=none;strokeColor=#33001A;strokeWidth=3;" parent="1" vertex="1">
          <mxGeometry x="360" y="10" width="130" height="60" as="geometry" />
        </mxCell>
        <mxCell id="tQk5czNiYiRrhmJO2r0t-15" value="&lt;b style=&quot;&quot;&gt;&lt;font color=&quot;#33001a&quot;&gt;Title - Subtitile&lt;/font&gt;&lt;/b&gt;" style="rounded=0;whiteSpace=wrap;html=1;fillColor=none;strokeColor=#33001A;strokeWidth=3;movable=1;resizable=1;rotatable=1;deletable=1;editable=1;locked=0;connectable=1;" parent="1" vertex="1">
          <mxGeometry x="170" y="150" width="570" height="40" as="geometry" />
        </mxCell>
        <mxCell id="tQk5czNiYiRrhmJO2r0t-6" style="edgeStyle=orthogonalEdgeStyle;rounded=0;orthogonalLoop=1;jettySize=auto;html=1;exitX=0.5;exitY=0;exitDx=0;exitDy=0;movable=1;resizable=1;rotatable=1;deletable=1;editable=1;locked=0;connectable=1;" parent="1" edge="1">
          <mxGeometry relative="1" as="geometry">
            <mxPoint x="115" y="210" as="sourcePoint" />
            <mxPoint x="115.0666666666666" y="910" as="targetPoint" />
          </mxGeometry>
        </mxCell>
        <mxCell id="tQk5czNiYiRrhmJO2r0t-7" value="" style="rounded=0;whiteSpace=wrap;html=1;fillColor=none;strokeColor=#000099;strokeWidth=3;movable=1;resizable=1;rotatable=1;deletable=1;editable=1;locked=0;connectable=1;container=0;" parent="1" vertex="1">
          <mxGeometry x="60" y="140" width="1170" height="60" as="geometry" />
        </mxCell>
        <mxCell id="tQk5czNiYiRrhmJO2r0t-14" value="&lt;b style=&quot;&quot;&gt;&lt;font color=&quot;#33001a&quot;&gt;LOGO&lt;/font&gt;&lt;/b&gt;" style="rounded=0;whiteSpace=wrap;html=1;fillColor=none;strokeColor=#33001A;strokeWidth=3;movable=1;resizable=1;rotatable=1;deletable=1;editable=1;locked=0;connectable=1;" parent="1" vertex="1">
          <mxGeometry x="70" y="150" width="90" height="40" as="geometry" />
        </mxCell>
        <mxCell id="tQk5czNiYiRrhmJO2r0t-16" value="&lt;b style=&quot;&quot;&gt;&lt;font color=&quot;#33001a&quot;&gt;Floating&lt;/font&gt;&lt;/b&gt;&lt;div&gt;&lt;b style=&quot;&quot;&gt;&lt;font color=&quot;#33001a&quot;&gt;Filters&lt;/font&gt;&lt;/b&gt;&lt;/div&gt;" style="rounded=0;whiteSpace=wrap;html=1;fillColor=none;strokeColor=#33001A;strokeWidth=3;movable=1;resizable=1;rotatable=1;deletable=1;editable=1;locked=0;connectable=1;" parent="1" vertex="1">
          <mxGeometry x="1246" y="203" width="170" height="704" as="geometry" />
        </mxCell>
        <mxCell id="tQk5czNiYiRrhmJO2r0t-17" value="&lt;b style=&quot;&quot;&gt;&lt;font color=&quot;#33001a&quot;&gt;Filter&lt;/font&gt;&lt;/b&gt;&lt;div&gt;&lt;b style=&quot;&quot;&gt;&lt;font color=&quot;#33001a&quot;&gt;Button&lt;/font&gt;&lt;/b&gt;&lt;/div&gt;" style="rounded=0;whiteSpace=wrap;html=1;fillColor=none;strokeColor=#33001A;strokeWidth=3;movable=1;resizable=1;rotatable=1;deletable=1;editable=1;locked=0;connectable=1;" parent="1" vertex="1">
          <mxGeometry x="1130" y="150" width="90" height="40" as="geometry" />
        </mxCell>
        <mxCell id="tQk5czNiYiRrhmJO2r0t-21" value="" style="edgeStyle=orthogonalEdgeStyle;rounded=0;orthogonalLoop=1;jettySize=auto;html=1;movable=1;resizable=1;rotatable=1;deletable=1;editable=1;locked=0;connectable=1;" parent="1" source="GhJrmts-B4TALpDch8Zh-28" edge="1">
          <mxGeometry relative="1" as="geometry">
            <mxPoint x="115" y="270" as="sourcePoint" />
            <mxPoint x="115.04761904761904" y="350" as="targetPoint" />
          </mxGeometry>
        </mxCell>
        <mxCell id="GhJrmts-B4TALpDch8Zh-1" value="&lt;b style=&quot;&quot;&gt;&lt;font color=&quot;#ff0000&quot;&gt;Vertical Rectangle&lt;/font&gt;&lt;/b&gt;" style="rounded=0;whiteSpace=wrap;html=1;fillColor=none;strokeColor=#FF0000;strokeWidth=3;movable=1;resizable=1;rotatable=1;deletable=1;editable=1;locked=0;connectable=1;" parent="1" vertex="1">
          <mxGeometry x="84" y="278" width="580" height="341" as="geometry" />
        </mxCell>
        <mxCell id="GhJrmts-B4TALpDch8Zh-3" value="&lt;b style=&quot;&quot;&gt;&lt;font color=&quot;#33001a&quot;&gt;Tree map&lt;/font&gt;&lt;/b&gt;&lt;div&gt;&lt;b style=&quot;&quot;&gt;&lt;font color=&quot;#33001a&quot;&gt;with button switch&lt;/font&gt;&lt;/b&gt;&lt;/div&gt;" style="rounded=0;whiteSpace=wrap;html=1;fillColor=none;strokeColor=#33001A;strokeWidth=3;movable=1;resizable=1;rotatable=1;deletable=1;editable=1;locked=0;connectable=1;container=0;" parent="1" vertex="1">
          <mxGeometry x="260" y="639" width="412" height="248" as="geometry" />
        </mxCell>
        <mxCell id="GhJrmts-B4TALpDch8Zh-4" value="&lt;font color=&quot;#33001a&quot;&gt;&lt;b&gt;Heat map&lt;/b&gt;&lt;/font&gt;&lt;div&gt;&lt;font color=&quot;#33001a&quot;&gt;&lt;b&gt;Protocol vs Service&lt;/b&gt;&lt;/font&gt;&lt;/div&gt;" style="rounded=0;whiteSpace=wrap;html=1;fillColor=none;strokeColor=#33001A;strokeWidth=3;movable=1;resizable=1;rotatable=1;deletable=1;editable=1;locked=0;connectable=1;" parent="1" vertex="1">
          <mxGeometry x="836" y="640" width="359" height="247" as="geometry" />
        </mxCell>
        <mxCell id="GhJrmts-B4TALpDch8Zh-5" value="&lt;div&gt;&lt;b style=&quot;&quot;&gt;&lt;font color=&quot;#33001a&quot;&gt;Bar&lt;/font&gt;&lt;/b&gt;&lt;/div&gt;&lt;b style=&quot;&quot;&gt;&lt;font color=&quot;#33001a&quot;&gt;Protocol&amp;nbsp;&lt;/font&gt;&lt;/b&gt;&lt;div&gt;&lt;b style=&quot;&quot;&gt;&lt;font color=&quot;#33001a&quot;&gt;Attack normal&lt;/font&gt;&lt;/b&gt;&lt;/div&gt;" style="rounded=0;whiteSpace=wrap;html=1;fillColor=none;strokeColor=#33001A;strokeWidth=3;movable=1;resizable=1;rotatable=1;deletable=1;editable=1;locked=0;connectable=1;" parent="1" vertex="1">
          <mxGeometry x="681" y="639" width="150" height="247" as="geometry" />
        </mxCell>
        <mxCell id="GhJrmts-B4TALpDch8Zh-13" value="" style="rounded=0;whiteSpace=wrap;html=1;fillColor=none;strokeColor=#000099;strokeWidth=3;movable=1;resizable=1;rotatable=1;deletable=1;editable=1;locked=0;connectable=1;" parent="1" vertex="1">
          <mxGeometry x="83" y="215" width="1129" height="60" as="geometry" />
        </mxCell>
        <mxCell id="GhJrmts-B4TALpDch8Zh-14" value="&lt;b style=&quot;&quot;&gt;&lt;font color=&quot;#33001a&quot;&gt;Object&lt;/font&gt;&lt;/b&gt;" style="rounded=0;whiteSpace=wrap;html=1;fillColor=none;strokeColor=#33001A;strokeWidth=3;movable=1;resizable=1;rotatable=1;deletable=1;editable=1;locked=0;connectable=1;" parent="1" vertex="1">
          <mxGeometry x="185" y="222" width="89" height="45" as="geometry" />
        </mxCell>
        <mxCell id="GhJrmts-B4TALpDch8Zh-15" value="&lt;b style=&quot;&quot;&gt;&lt;font color=&quot;#33001a&quot;&gt;Object&lt;/font&gt;&lt;/b&gt;" style="rounded=0;whiteSpace=wrap;html=1;fillColor=none;strokeColor=#33001A;strokeWidth=3;movable=1;resizable=1;rotatable=1;deletable=1;editable=1;locked=0;connectable=1;" parent="1" vertex="1">
          <mxGeometry x="280" y="222" width="89" height="45" as="geometry" />
        </mxCell>
        <mxCell id="GhJrmts-B4TALpDch8Zh-16" value="&lt;b style=&quot;&quot;&gt;&lt;font color=&quot;#33001a&quot;&gt;Object&lt;/font&gt;&lt;/b&gt;" style="rounded=0;whiteSpace=wrap;html=1;fillColor=none;strokeColor=#33001A;strokeWidth=3;movable=1;resizable=1;rotatable=1;deletable=1;editable=1;locked=0;connectable=1;" parent="1" vertex="1">
          <mxGeometry x="375" y="222.5" width="89" height="45" as="geometry" />
        </mxCell>
        <mxCell id="GhJrmts-B4TALpDch8Zh-17" value="&lt;b style=&quot;&quot;&gt;&lt;font color=&quot;#33001a&quot;&gt;Object&lt;/font&gt;&lt;/b&gt;" style="rounded=0;whiteSpace=wrap;html=1;fillColor=none;strokeColor=#33001A;strokeWidth=3;movable=1;resizable=1;rotatable=1;deletable=1;editable=1;locked=0;connectable=1;" parent="1" vertex="1">
          <mxGeometry x="472" y="222.5" width="89" height="45" as="geometry" />
        </mxCell>
        <mxCell id="GhJrmts-B4TALpDch8Zh-18" value="&lt;b style=&quot;&quot;&gt;&lt;font color=&quot;#33001a&quot;&gt;Object&lt;/font&gt;&lt;/b&gt;" style="rounded=0;whiteSpace=wrap;html=1;fillColor=none;strokeColor=#33001A;strokeWidth=3;movable=1;resizable=1;rotatable=1;deletable=1;editable=1;locked=0;connectable=1;" parent="1" vertex="1">
          <mxGeometry x="569" y="222.5" width="89" height="45" as="geometry" />
        </mxCell>
        <mxCell id="GhJrmts-B4TALpDch8Zh-19" value="&lt;b style=&quot;&quot;&gt;&lt;font color=&quot;#33001a&quot;&gt;Object&lt;/font&gt;&lt;/b&gt;" style="rounded=0;whiteSpace=wrap;html=1;fillColor=none;strokeColor=#33001A;strokeWidth=3;movable=1;resizable=1;rotatable=1;deletable=1;editable=1;locked=0;connectable=1;" parent="1" vertex="1">
          <mxGeometry x="665" y="222.5" width="89" height="45" as="geometry" />
        </mxCell>
        <mxCell id="GhJrmts-B4TALpDch8Zh-20" value="&lt;b style=&quot;&quot;&gt;&lt;font color=&quot;#33001a&quot;&gt;Object&lt;/font&gt;&lt;/b&gt;" style="rounded=0;whiteSpace=wrap;html=1;fillColor=none;strokeColor=#33001A;strokeWidth=3;movable=1;resizable=1;rotatable=1;deletable=1;editable=1;locked=0;connectable=1;" parent="1" vertex="1">
          <mxGeometry x="761" y="222.5" width="89" height="45" as="geometry" />
        </mxCell>
        <mxCell id="GhJrmts-B4TALpDch8Zh-21" value="&lt;b style=&quot;&quot;&gt;&lt;font color=&quot;#33001a&quot;&gt;Object&lt;/font&gt;&lt;/b&gt;" style="rounded=0;whiteSpace=wrap;html=1;fillColor=none;strokeColor=#33001A;strokeWidth=3;movable=1;resizable=1;rotatable=1;deletable=1;editable=1;locked=0;connectable=1;" parent="1" vertex="1">
          <mxGeometry x="857" y="222.5" width="89" height="45" as="geometry" />
        </mxCell>
        <mxCell id="GhJrmts-B4TALpDch8Zh-22" value="&lt;b style=&quot;&quot;&gt;&lt;font color=&quot;#33001a&quot;&gt;Object&lt;/font&gt;&lt;/b&gt;" style="rounded=0;whiteSpace=wrap;html=1;fillColor=none;strokeColor=#33001A;strokeWidth=3;movable=1;resizable=1;rotatable=1;deletable=1;editable=1;locked=0;connectable=1;" parent="1" vertex="1">
          <mxGeometry x="953" y="222" width="89" height="45" as="geometry" />
        </mxCell>
        <mxCell id="GhJrmts-B4TALpDch8Zh-23" value="&lt;b style=&quot;&quot;&gt;&lt;font color=&quot;#33001a&quot;&gt;Object&lt;/font&gt;&lt;/b&gt;" style="rounded=0;whiteSpace=wrap;html=1;fillColor=none;strokeColor=#33001A;strokeWidth=3;movable=1;resizable=1;rotatable=1;deletable=1;editable=1;locked=0;connectable=1;" parent="1" vertex="1">
          <mxGeometry x="1049" y="222.5" width="89" height="45" as="geometry" />
        </mxCell>
        <mxCell id="GhJrmts-B4TALpDch8Zh-24" value="&lt;b style=&quot;&quot;&gt;&lt;font color=&quot;#33001a&quot;&gt;Object&lt;/font&gt;&lt;/b&gt;" style="rounded=0;whiteSpace=wrap;html=1;fillColor=none;strokeColor=#33001A;strokeWidth=3;movable=1;resizable=1;rotatable=1;deletable=1;editable=1;locked=0;connectable=1;" parent="1" vertex="1">
          <mxGeometry x="1145" y="222.5" width="59" height="45" as="geometry" />
        </mxCell>
        <mxCell id="GhJrmts-B4TALpDch8Zh-29" value="" style="rounded=0;whiteSpace=wrap;html=1;fillColor=none;strokeColor=#000099;strokeWidth=3;movable=1;resizable=1;rotatable=1;deletable=1;editable=1;locked=0;connectable=1;" parent="1" vertex="1">
          <mxGeometry x="752" y="150" width="367" height="40" as="geometry" />
        </mxCell>
        <mxCell id="GhJrmts-B4TALpDch8Zh-30" value="" style="edgeStyle=orthogonalEdgeStyle;rounded=0;orthogonalLoop=1;jettySize=auto;html=1;movable=1;resizable=1;rotatable=1;deletable=1;editable=1;locked=0;connectable=1;" parent="1" target="GhJrmts-B4TALpDch8Zh-28" edge="1">
          <mxGeometry relative="1" as="geometry">
            <mxPoint x="115" y="270" as="sourcePoint" />
            <mxPoint x="115.04761904761904" y="350" as="targetPoint" />
          </mxGeometry>
        </mxCell>
        <mxCell id="GhJrmts-B4TALpDch8Zh-28" value="&lt;font style=&quot;font-size: 8px;&quot; color=&quot;#33001a&quot;&gt;&lt;b style=&quot;&quot;&gt;Dashboard change&lt;/b&gt;&lt;/font&gt;&lt;div style=&quot;font-size: 8px;&quot;&gt;&lt;font style=&quot;font-size: 8px;&quot; color=&quot;#33001a&quot;&gt;&lt;b style=&quot;&quot;&gt;button&lt;/b&gt;&lt;/font&gt;&lt;/div&gt;" style="rounded=0;whiteSpace=wrap;html=1;fillColor=none;strokeColor=#33001A;strokeWidth=3;movable=1;resizable=1;rotatable=1;deletable=1;editable=1;locked=0;connectable=1;" parent="1" vertex="1">
          <mxGeometry x="758" y="155" width="76" height="30" as="geometry" />
        </mxCell>
        <mxCell id="GhJrmts-B4TALpDch8Zh-32" value="&lt;font color=&quot;#33001a&quot;&gt;&lt;span style=&quot;font-size: 8px;&quot;&gt;&lt;b&gt;Export pdf&lt;/b&gt;&lt;/span&gt;&lt;/font&gt;&lt;div&gt;&lt;font color=&quot;#33001a&quot;&gt;&lt;span style=&quot;font-size: 8px;&quot;&gt;&lt;b&gt;Button&lt;/b&gt;&lt;/span&gt;&lt;/font&gt;&lt;/div&gt;" style="rounded=0;whiteSpace=wrap;html=1;fillColor=none;strokeColor=#33001A;strokeWidth=3;movable=1;resizable=1;rotatable=1;deletable=1;editable=1;locked=0;connectable=1;" parent="1" vertex="1">
          <mxGeometry x="843" y="155" width="50" height="30" as="geometry" />
        </mxCell>
        <mxCell id="GhJrmts-B4TALpDch8Zh-33" value="&lt;font color=&quot;#33001a&quot;&gt;&lt;span style=&quot;font-size: 8px;&quot;&gt;&lt;b&gt;Export jpg&lt;/b&gt;&lt;/span&gt;&lt;/font&gt;&lt;div&gt;&lt;font color=&quot;#33001a&quot;&gt;&lt;span style=&quot;font-size: 8px;&quot;&gt;&lt;b&gt;Button&lt;/b&gt;&lt;/span&gt;&lt;/font&gt;&lt;/div&gt;" style="rounded=0;whiteSpace=wrap;html=1;fillColor=none;strokeColor=#33001A;strokeWidth=3;movable=1;resizable=1;rotatable=1;deletable=1;editable=1;locked=0;connectable=1;" parent="1" vertex="1">
          <mxGeometry x="899" y="155" width="50" height="30" as="geometry" />
        </mxCell>
        <mxCell id="GhJrmts-B4TALpDch8Zh-34" value="&lt;font color=&quot;#33001a&quot;&gt;&lt;span style=&quot;font-size: 8px;&quot;&gt;&lt;b&gt;Linked in&amp;nbsp;&lt;/b&gt;&lt;/span&gt;&lt;/font&gt;&lt;div&gt;&lt;font color=&quot;#33001a&quot;&gt;&lt;span style=&quot;font-size: 8px;&quot;&gt;&lt;b&gt;Link&lt;/b&gt;&lt;/span&gt;&lt;/font&gt;&lt;/div&gt;" style="rounded=0;whiteSpace=wrap;html=1;fillColor=none;strokeColor=#33001A;strokeWidth=3;movable=1;resizable=1;rotatable=1;deletable=1;editable=1;locked=0;connectable=1;" parent="1" vertex="1">
          <mxGeometry x="957.5" y="155" width="50" height="30" as="geometry" />
        </mxCell>
        <mxCell id="GhJrmts-B4TALpDch8Zh-35" value="&lt;font color=&quot;#33001a&quot;&gt;&lt;span style=&quot;font-size: 8px;&quot;&gt;&lt;b&gt;Tableau&lt;/b&gt;&lt;/span&gt;&lt;/font&gt;&lt;div&gt;&lt;font color=&quot;#33001a&quot;&gt;&lt;span style=&quot;font-size: 8px;&quot;&gt;&lt;b&gt;Link&lt;/b&gt;&lt;/span&gt;&lt;/font&gt;&lt;/div&gt;" style="rounded=0;whiteSpace=wrap;html=1;fillColor=none;strokeColor=#33001A;strokeWidth=3;movable=1;resizable=1;rotatable=1;deletable=1;editable=1;locked=0;connectable=1;" parent="1" vertex="1">
          <mxGeometry x="1016" y="155" width="50" height="30" as="geometry" />
        </mxCell>
        <mxCell id="GhJrmts-B4TALpDch8Zh-36" value="&lt;font color=&quot;#33001a&quot;&gt;&lt;span style=&quot;font-size: 8px;&quot;&gt;&lt;b&gt;Info&lt;/b&gt;&lt;/span&gt;&lt;/font&gt;&lt;div&gt;&lt;font color=&quot;#33001a&quot;&gt;&lt;span style=&quot;font-size: 8px;&quot;&gt;&lt;b&gt;Button&lt;/b&gt;&lt;/span&gt;&lt;/font&gt;&lt;/div&gt;" style="rounded=0;whiteSpace=wrap;html=1;fillColor=none;strokeColor=#33001A;strokeWidth=3;movable=1;resizable=1;rotatable=1;deletable=1;editable=1;locked=0;connectable=1;" parent="1" vertex="1">
          <mxGeometry x="1073" y="155" width="37" height="30" as="geometry" />
        </mxCell>
        <mxCell id="GhJrmts-B4TALpDch8Zh-37" value="&lt;b style=&quot;&quot;&gt;&lt;font color=&quot;#33001a&quot;&gt;Object&lt;/font&gt;&lt;/b&gt;" style="rounded=0;whiteSpace=wrap;html=1;fillColor=none;strokeColor=#33001A;strokeWidth=3;movable=1;resizable=1;rotatable=1;deletable=1;editable=1;locked=0;connectable=1;" parent="1" vertex="1">
          <mxGeometry x="90" y="222.5" width="89" height="45" as="geometry" />
        </mxCell>
        <mxCell id="h6mfj84uybGEKEOPZTwr-2" value="" style="group" parent="1" vertex="1" connectable="0">
          <mxGeometry x="670" y="278" width="543" height="341" as="geometry" />
        </mxCell>
        <mxCell id="GhJrmts-B4TALpDch8Zh-7" value="" style="rounded=0;whiteSpace=wrap;html=1;fillColor=none;strokeColor=#FF0000;strokeWidth=3;movable=1;resizable=1;rotatable=1;deletable=1;editable=1;locked=0;connectable=1;" parent="h6mfj84uybGEKEOPZTwr-2" vertex="1">
          <mxGeometry width="543" height="341" as="geometry" />
        </mxCell>
        <mxCell id="GhJrmts-B4TALpDch8Zh-9" value="&lt;font color=&quot;#33001a&quot;&gt;&lt;b&gt;Bar&lt;/b&gt;&lt;/font&gt;&lt;br&gt;&lt;div&gt;&lt;font color=&quot;#33001a&quot;&gt;&lt;b&gt;Service&lt;/b&gt;&lt;/font&gt;&lt;/div&gt;&lt;div&gt;&lt;font color=&quot;#33001a&quot;&gt;&lt;b&gt;Attack or normal&lt;/b&gt;&lt;/font&gt;&lt;/div&gt;" style="rounded=0;whiteSpace=wrap;html=1;fillColor=none;strokeColor=#33001A;strokeWidth=3;movable=1;resizable=1;rotatable=1;deletable=1;editable=1;locked=0;connectable=1;" parent="h6mfj84uybGEKEOPZTwr-2" vertex="1">
          <mxGeometry x="167.85162287480682" y="161" width="367.59505409582687" height="169" as="geometry" />
        </mxCell>
        <mxCell id="GhJrmts-B4TALpDch8Zh-12" value="&lt;font color=&quot;#33001a&quot;&gt;&lt;b&gt;Bubble&lt;/b&gt;&lt;/font&gt;&lt;div&gt;&lt;font color=&quot;#33001a&quot;&gt;&lt;b&gt;Login related&lt;br&gt;&lt;/b&gt;&lt;/font&gt;&lt;div&gt;&lt;font color=&quot;#33001a&quot;&gt;&lt;b&gt;Attack or normal&lt;/b&gt;&lt;/font&gt;&lt;/div&gt;&lt;/div&gt;" style="rounded=0;whiteSpace=wrap;html=1;fillColor=none;strokeColor=#33001A;strokeWidth=3;movable=1;resizable=1;rotatable=1;deletable=1;editable=1;locked=0;connectable=1;" parent="h6mfj84uybGEKEOPZTwr-2" vertex="1">
          <mxGeometry x="5.035548686244205" y="8" width="530.4111282843895" height="145" as="geometry" />
        </mxCell>
        <mxCell id="h6mfj84uybGEKEOPZTwr-1" value="&lt;b style=&quot;&quot;&gt;&lt;font color=&quot;#33001a&quot;&gt;Pie&lt;/font&gt;&lt;/b&gt;&lt;div&gt;&lt;b style=&quot;&quot;&gt;&lt;font color=&quot;#33001a&quot;&gt;Flag&lt;/font&gt;&lt;/b&gt;&lt;/div&gt;&lt;div&gt;&lt;b style=&quot;&quot;&gt;&lt;font color=&quot;#33001a&quot;&gt;Dist&lt;/font&gt;&lt;/b&gt;&lt;/div&gt;" style="rounded=0;whiteSpace=wrap;html=1;fillColor=none;strokeColor=#33001A;strokeWidth=3;movable=1;resizable=1;rotatable=1;deletable=1;editable=1;locked=0;connectable=1;" parent="h6mfj84uybGEKEOPZTwr-2" vertex="1">
          <mxGeometry x="7.553323029366307" y="161" width="153.58423493044822" height="170" as="geometry" />
        </mxCell>
        <mxCell id="XdFvXGQpU-g9N7wpAjeI-1" value="" style="rounded=0;whiteSpace=wrap;html=1;fillColor=none;strokeColor=#FF0000;strokeWidth=3;movable=1;resizable=1;rotatable=1;deletable=1;editable=1;locked=0;connectable=1;" vertex="1" parent="1">
          <mxGeometry x="117.5" y="1065" width="1200" height="800" as="geometry" />
        </mxCell>
        <mxCell id="XdFvXGQpU-g9N7wpAjeI-6" value="&lt;b style=&quot;&quot;&gt;&lt;font color=&quot;#33001a&quot;&gt;Title - Subtitile&lt;/font&gt;&lt;/b&gt;" style="rounded=0;whiteSpace=wrap;html=1;fillColor=none;strokeColor=#33001A;strokeWidth=3;movable=1;resizable=1;rotatable=1;deletable=1;editable=1;locked=0;connectable=1;" vertex="1" parent="1">
          <mxGeometry x="247.5" y="1085" width="570" height="40" as="geometry" />
        </mxCell>
        <mxCell id="XdFvXGQpU-g9N7wpAjeI-7" style="edgeStyle=orthogonalEdgeStyle;rounded=0;orthogonalLoop=1;jettySize=auto;html=1;exitX=0.5;exitY=0;exitDx=0;exitDy=0;movable=1;resizable=1;rotatable=1;deletable=1;editable=1;locked=0;connectable=1;" edge="1" parent="1">
          <mxGeometry relative="1" as="geometry">
            <mxPoint x="192.5" y="1145" as="sourcePoint" />
            <mxPoint x="192.5666666666666" y="1845" as="targetPoint" />
          </mxGeometry>
        </mxCell>
        <mxCell id="XdFvXGQpU-g9N7wpAjeI-8" value="" style="rounded=0;whiteSpace=wrap;html=1;fillColor=none;strokeColor=#000099;strokeWidth=3;movable=1;resizable=1;rotatable=1;deletable=1;editable=1;locked=0;connectable=1;container=0;" vertex="1" parent="1">
          <mxGeometry x="137.5" y="1075" width="1170" height="60" as="geometry" />
        </mxCell>
        <mxCell id="XdFvXGQpU-g9N7wpAjeI-9" value="&lt;b style=&quot;&quot;&gt;&lt;font color=&quot;#33001a&quot;&gt;LOGO&lt;/font&gt;&lt;/b&gt;" style="rounded=0;whiteSpace=wrap;html=1;fillColor=none;strokeColor=#33001A;strokeWidth=3;movable=1;resizable=1;rotatable=1;deletable=1;editable=1;locked=0;connectable=1;" vertex="1" parent="1">
          <mxGeometry x="147.5" y="1085" width="90" height="40" as="geometry" />
        </mxCell>
        <mxCell id="XdFvXGQpU-g9N7wpAjeI-10" value="&lt;b style=&quot;&quot;&gt;&lt;font color=&quot;#33001a&quot;&gt;Floating&lt;/font&gt;&lt;/b&gt;&lt;div&gt;&lt;b style=&quot;&quot;&gt;&lt;font color=&quot;#33001a&quot;&gt;Filters&lt;/font&gt;&lt;/b&gt;&lt;/div&gt;" style="rounded=0;whiteSpace=wrap;html=1;fillColor=none;strokeColor=#33001A;strokeWidth=3;movable=1;resizable=1;rotatable=1;deletable=1;editable=1;locked=0;connectable=1;" vertex="1" parent="1">
          <mxGeometry x="1323.5" y="1138" width="170" height="704" as="geometry" />
        </mxCell>
        <mxCell id="XdFvXGQpU-g9N7wpAjeI-11" value="&lt;b style=&quot;&quot;&gt;&lt;font color=&quot;#33001a&quot;&gt;Filter&lt;/font&gt;&lt;/b&gt;&lt;div&gt;&lt;b style=&quot;&quot;&gt;&lt;font color=&quot;#33001a&quot;&gt;Button&lt;/font&gt;&lt;/b&gt;&lt;/div&gt;" style="rounded=0;whiteSpace=wrap;html=1;fillColor=none;strokeColor=#33001A;strokeWidth=3;movable=1;resizable=1;rotatable=1;deletable=1;editable=1;locked=0;connectable=1;" vertex="1" parent="1">
          <mxGeometry x="1207.5" y="1085" width="90" height="40" as="geometry" />
        </mxCell>
        <mxCell id="XdFvXGQpU-g9N7wpAjeI-12" value="" style="edgeStyle=orthogonalEdgeStyle;rounded=0;orthogonalLoop=1;jettySize=auto;html=1;movable=1;resizable=1;rotatable=1;deletable=1;editable=1;locked=0;connectable=1;" edge="1" parent="1" source="XdFvXGQpU-g9N7wpAjeI-31">
          <mxGeometry relative="1" as="geometry">
            <mxPoint x="192.5" y="1205" as="sourcePoint" />
            <mxPoint x="192.54761904761904" y="1285" as="targetPoint" />
          </mxGeometry>
        </mxCell>
        <mxCell id="XdFvXGQpU-g9N7wpAjeI-29" value="" style="rounded=0;whiteSpace=wrap;html=1;fillColor=none;strokeColor=#000099;strokeWidth=3;movable=1;resizable=1;rotatable=1;deletable=1;editable=1;locked=0;connectable=1;" vertex="1" parent="1">
          <mxGeometry x="829.5" y="1085" width="367" height="40" as="geometry" />
        </mxCell>
        <mxCell id="XdFvXGQpU-g9N7wpAjeI-31" value="&lt;font style=&quot;font-size: 8px;&quot; color=&quot;#33001a&quot;&gt;&lt;b style=&quot;&quot;&gt;Dashboard change&lt;/b&gt;&lt;/font&gt;&lt;div style=&quot;font-size: 8px;&quot;&gt;&lt;font style=&quot;font-size: 8px;&quot; color=&quot;#33001a&quot;&gt;&lt;b style=&quot;&quot;&gt;button&lt;/b&gt;&lt;/font&gt;&lt;/div&gt;" style="rounded=0;whiteSpace=wrap;html=1;fillColor=none;strokeColor=#33001A;strokeWidth=3;movable=1;resizable=1;rotatable=1;deletable=1;editable=1;locked=0;connectable=1;" vertex="1" parent="1">
          <mxGeometry x="835.5" y="1090" width="76" height="30" as="geometry" />
        </mxCell>
        <mxCell id="XdFvXGQpU-g9N7wpAjeI-32" value="&lt;font color=&quot;#33001a&quot;&gt;&lt;span style=&quot;font-size: 8px;&quot;&gt;&lt;b&gt;Export pdf&lt;/b&gt;&lt;/span&gt;&lt;/font&gt;&lt;div&gt;&lt;font color=&quot;#33001a&quot;&gt;&lt;span style=&quot;font-size: 8px;&quot;&gt;&lt;b&gt;Button&lt;/b&gt;&lt;/span&gt;&lt;/font&gt;&lt;/div&gt;" style="rounded=0;whiteSpace=wrap;html=1;fillColor=none;strokeColor=#33001A;strokeWidth=3;movable=1;resizable=1;rotatable=1;deletable=1;editable=1;locked=0;connectable=1;" vertex="1" parent="1">
          <mxGeometry x="920.5" y="1090" width="50" height="30" as="geometry" />
        </mxCell>
        <mxCell id="XdFvXGQpU-g9N7wpAjeI-33" value="&lt;font color=&quot;#33001a&quot;&gt;&lt;span style=&quot;font-size: 8px;&quot;&gt;&lt;b&gt;Export jpg&lt;/b&gt;&lt;/span&gt;&lt;/font&gt;&lt;div&gt;&lt;font color=&quot;#33001a&quot;&gt;&lt;span style=&quot;font-size: 8px;&quot;&gt;&lt;b&gt;Button&lt;/b&gt;&lt;/span&gt;&lt;/font&gt;&lt;/div&gt;" style="rounded=0;whiteSpace=wrap;html=1;fillColor=none;strokeColor=#33001A;strokeWidth=3;movable=1;resizable=1;rotatable=1;deletable=1;editable=1;locked=0;connectable=1;" vertex="1" parent="1">
          <mxGeometry x="976.5" y="1090" width="50" height="30" as="geometry" />
        </mxCell>
        <mxCell id="XdFvXGQpU-g9N7wpAjeI-34" value="&lt;font color=&quot;#33001a&quot;&gt;&lt;span style=&quot;font-size: 8px;&quot;&gt;&lt;b&gt;Linked in&amp;nbsp;&lt;/b&gt;&lt;/span&gt;&lt;/font&gt;&lt;div&gt;&lt;font color=&quot;#33001a&quot;&gt;&lt;span style=&quot;font-size: 8px;&quot;&gt;&lt;b&gt;Link&lt;/b&gt;&lt;/span&gt;&lt;/font&gt;&lt;/div&gt;" style="rounded=0;whiteSpace=wrap;html=1;fillColor=none;strokeColor=#33001A;strokeWidth=3;movable=1;resizable=1;rotatable=1;deletable=1;editable=1;locked=0;connectable=1;" vertex="1" parent="1">
          <mxGeometry x="1035" y="1090" width="50" height="30" as="geometry" />
        </mxCell>
        <mxCell id="XdFvXGQpU-g9N7wpAjeI-35" value="&lt;font color=&quot;#33001a&quot;&gt;&lt;span style=&quot;font-size: 8px;&quot;&gt;&lt;b&gt;Tableau&lt;/b&gt;&lt;/span&gt;&lt;/font&gt;&lt;div&gt;&lt;font color=&quot;#33001a&quot;&gt;&lt;span style=&quot;font-size: 8px;&quot;&gt;&lt;b&gt;Link&lt;/b&gt;&lt;/span&gt;&lt;/font&gt;&lt;/div&gt;" style="rounded=0;whiteSpace=wrap;html=1;fillColor=none;strokeColor=#33001A;strokeWidth=3;movable=1;resizable=1;rotatable=1;deletable=1;editable=1;locked=0;connectable=1;" vertex="1" parent="1">
          <mxGeometry x="1093.5" y="1090" width="50" height="30" as="geometry" />
        </mxCell>
        <mxCell id="XdFvXGQpU-g9N7wpAjeI-36" value="&lt;font color=&quot;#33001a&quot;&gt;&lt;span style=&quot;font-size: 8px;&quot;&gt;&lt;b&gt;Info&lt;/b&gt;&lt;/span&gt;&lt;/font&gt;&lt;div&gt;&lt;font color=&quot;#33001a&quot;&gt;&lt;span style=&quot;font-size: 8px;&quot;&gt;&lt;b&gt;Button&lt;/b&gt;&lt;/span&gt;&lt;/font&gt;&lt;/div&gt;" style="rounded=0;whiteSpace=wrap;html=1;fillColor=none;strokeColor=#33001A;strokeWidth=3;movable=1;resizable=1;rotatable=1;deletable=1;editable=1;locked=0;connectable=1;" vertex="1" parent="1">
          <mxGeometry x="1150.5" y="1090" width="37" height="30" as="geometry" />
        </mxCell>
        <mxCell id="XdFvXGQpU-g9N7wpAjeI-43" value="&lt;b style=&quot;&quot;&gt;&lt;font color=&quot;#000099&quot;&gt;Horizontal Rectangle&lt;/font&gt;&lt;/b&gt;" style="rounded=0;whiteSpace=wrap;html=1;fillColor=none;strokeColor=#000099;strokeWidth=3;" vertex="1" parent="1">
          <mxGeometry x="200" y="968" width="130" height="60" as="geometry" />
        </mxCell>
        <mxCell id="XdFvXGQpU-g9N7wpAjeI-44" value="&lt;b style=&quot;&quot;&gt;&lt;font color=&quot;#ff0000&quot;&gt;Vertical Rectangle&lt;/font&gt;&lt;/b&gt;" style="rounded=0;whiteSpace=wrap;html=1;fillColor=none;strokeColor=#FF0000;strokeWidth=3;" vertex="1" parent="1">
          <mxGeometry x="360" y="968" width="130" height="60" as="geometry" />
        </mxCell>
        <mxCell id="XdFvXGQpU-g9N7wpAjeI-45" value="&lt;b style=&quot;&quot;&gt;&lt;font color=&quot;#33001a&quot;&gt;Object&lt;/font&gt;&lt;/b&gt;" style="rounded=0;whiteSpace=wrap;html=1;fillColor=none;strokeColor=#33001A;strokeWidth=3;" vertex="1" parent="1">
          <mxGeometry x="520" y="968" width="130" height="60" as="geometry" />
        </mxCell>
        <mxCell id="XdFvXGQpU-g9N7wpAjeI-46" value="" style="rounded=0;whiteSpace=wrap;html=1;fillColor=none;strokeColor=#FF0000;strokeWidth=3;" vertex="1" parent="1">
          <mxGeometry x="153" y="1147" width="1145" height="696" as="geometry" />
        </mxCell>
        <mxCell id="XdFvXGQpU-g9N7wpAjeI-47" value="" style="rounded=0;whiteSpace=wrap;html=1;fillColor=none;strokeColor=#000099;strokeWidth=3;" vertex="1" parent="1">
          <mxGeometry x="164.5" y="1156" width="1124.5" height="275" as="geometry" />
        </mxCell>
        <mxCell id="XdFvXGQpU-g9N7wpAjeI-48" value="" style="rounded=0;whiteSpace=wrap;html=1;fillColor=none;strokeColor=#000099;strokeWidth=3;" vertex="1" parent="1">
          <mxGeometry x="164.5" y="1438" width="1125.5" height="398" as="geometry" />
        </mxCell>
        <mxCell id="XdFvXGQpU-g9N7wpAjeI-50" value="&lt;font color=&quot;#33001a&quot;&gt;&lt;b&gt;Time Series&lt;/b&gt;&lt;/font&gt;" style="rounded=0;whiteSpace=wrap;html=1;fillColor=none;strokeColor=#33001A;strokeWidth=3;" vertex="1" parent="1">
          <mxGeometry x="384" y="1168" width="311" height="254" as="geometry" />
        </mxCell>
        <mxCell id="XdFvXGQpU-g9N7wpAjeI-51" value="&lt;font color=&quot;#33001a&quot;&gt;&lt;b&gt;Time Series&lt;/b&gt;&lt;/font&gt;" style="rounded=0;whiteSpace=wrap;html=1;fillColor=none;strokeColor=#33001A;strokeWidth=3;" vertex="1" parent="1">
          <mxGeometry x="703.5" y="1167" width="569.5" height="254" as="geometry" />
        </mxCell>
        <mxCell id="XdFvXGQpU-g9N7wpAjeI-52" value="" style="rounded=0;whiteSpace=wrap;html=1;fillColor=none;strokeColor=#FF0000;strokeWidth=3;" vertex="1" parent="1">
          <mxGeometry x="170" y="1167" width="205" height="251" as="geometry" />
        </mxCell>
        <mxCell id="XdFvXGQpU-g9N7wpAjeI-53" value="&lt;b style=&quot;&quot;&gt;&lt;font color=&quot;#33001a&quot;&gt;Object&lt;/font&gt;&lt;/b&gt;" style="rounded=0;whiteSpace=wrap;html=1;fillColor=none;strokeColor=#33001A;strokeWidth=3;" vertex="1" parent="1">
          <mxGeometry x="175" y="1299" width="194" height="111" as="geometry" />
        </mxCell>
        <mxCell id="XdFvXGQpU-g9N7wpAjeI-56" value="" style="rounded=0;whiteSpace=wrap;html=1;fillColor=none;strokeColor=#FF0000;strokeWidth=3;" vertex="1" parent="1">
          <mxGeometry x="175" y="1446" width="540" height="379" as="geometry" />
        </mxCell>
        <mxCell id="XdFvXGQpU-g9N7wpAjeI-57" value="" style="rounded=0;whiteSpace=wrap;html=1;fillColor=none;strokeColor=#FF0000;strokeWidth=3;" vertex="1" parent="1">
          <mxGeometry x="725" y="1446" width="553" height="379" as="geometry" />
        </mxCell>
        <mxCell id="XdFvXGQpU-g9N7wpAjeI-63" value="&lt;b style=&quot;&quot;&gt;&lt;font color=&quot;#33001a&quot;&gt;Object&lt;/font&gt;&lt;/b&gt;" style="rounded=0;whiteSpace=wrap;html=1;fillColor=none;strokeColor=#33001A;strokeWidth=3;" vertex="1" parent="1">
          <mxGeometry x="193" y="1465" width="218" height="166" as="geometry" />
        </mxCell>
        <mxCell id="XdFvXGQpU-g9N7wpAjeI-64" value="&lt;b style=&quot;&quot;&gt;&lt;font color=&quot;#33001a&quot;&gt;Object&lt;/font&gt;&lt;/b&gt;" style="rounded=0;whiteSpace=wrap;html=1;fillColor=none;strokeColor=#33001A;strokeWidth=3;" vertex="1" parent="1">
          <mxGeometry x="477" y="1464.5" width="218" height="166" as="geometry" />
        </mxCell>
        <mxCell id="XdFvXGQpU-g9N7wpAjeI-65" value="&lt;b style=&quot;&quot;&gt;&lt;font color=&quot;#33001a&quot;&gt;Object&lt;/font&gt;&lt;/b&gt;" style="rounded=0;whiteSpace=wrap;html=1;fillColor=none;strokeColor=#33001A;strokeWidth=3;" vertex="1" parent="1">
          <mxGeometry x="417" y="1465" width="53" height="166" as="geometry" />
        </mxCell>
        <mxCell id="XdFvXGQpU-g9N7wpAjeI-70" value="&lt;b style=&quot;&quot;&gt;&lt;font color=&quot;#33001a&quot;&gt;Object&lt;/font&gt;&lt;/b&gt;" style="rounded=0;whiteSpace=wrap;html=1;fillColor=none;strokeColor=#33001A;strokeWidth=3;" vertex="1" parent="1">
          <mxGeometry x="193" y="1647.25" width="218" height="166" as="geometry" />
        </mxCell>
        <mxCell id="XdFvXGQpU-g9N7wpAjeI-71" value="&lt;b style=&quot;&quot;&gt;&lt;font color=&quot;#33001a&quot;&gt;Object&lt;/font&gt;&lt;/b&gt;" style="rounded=0;whiteSpace=wrap;html=1;fillColor=none;strokeColor=#33001A;strokeWidth=3;" vertex="1" parent="1">
          <mxGeometry x="477" y="1646.75" width="218" height="166" as="geometry" />
        </mxCell>
        <mxCell id="XdFvXGQpU-g9N7wpAjeI-72" value="&lt;b style=&quot;&quot;&gt;&lt;font color=&quot;#33001a&quot;&gt;Object&lt;/font&gt;&lt;/b&gt;" style="rounded=0;whiteSpace=wrap;html=1;fillColor=none;strokeColor=#33001A;strokeWidth=3;" vertex="1" parent="1">
          <mxGeometry x="417" y="1647.25" width="53" height="166" as="geometry" />
        </mxCell>
        <mxCell id="XdFvXGQpU-g9N7wpAjeI-73" value="&lt;b style=&quot;&quot;&gt;&lt;font color=&quot;#33001a&quot;&gt;Object&lt;/font&gt;&lt;/b&gt;" style="rounded=0;whiteSpace=wrap;html=1;fillColor=none;strokeColor=#33001A;strokeWidth=3;" vertex="1" parent="1">
          <mxGeometry x="744" y="1459.5" width="218" height="166" as="geometry" />
        </mxCell>
        <mxCell id="XdFvXGQpU-g9N7wpAjeI-74" value="&lt;b style=&quot;&quot;&gt;&lt;font color=&quot;#33001a&quot;&gt;Object&lt;/font&gt;&lt;/b&gt;" style="rounded=0;whiteSpace=wrap;html=1;fillColor=none;strokeColor=#33001A;strokeWidth=3;" vertex="1" parent="1">
          <mxGeometry x="1028" y="1459" width="218" height="166" as="geometry" />
        </mxCell>
        <mxCell id="XdFvXGQpU-g9N7wpAjeI-75" value="&lt;b style=&quot;&quot;&gt;&lt;font color=&quot;#33001a&quot;&gt;Object&lt;/font&gt;&lt;/b&gt;" style="rounded=0;whiteSpace=wrap;html=1;fillColor=none;strokeColor=#33001A;strokeWidth=3;" vertex="1" parent="1">
          <mxGeometry x="968" y="1459.5" width="53" height="166" as="geometry" />
        </mxCell>
        <mxCell id="XdFvXGQpU-g9N7wpAjeI-76" value="&lt;b style=&quot;&quot;&gt;&lt;font color=&quot;#33001a&quot;&gt;Object&lt;/font&gt;&lt;/b&gt;" style="rounded=0;whiteSpace=wrap;html=1;fillColor=none;strokeColor=#33001A;strokeWidth=3;" vertex="1" parent="1">
          <mxGeometry x="746.5" y="1642.5" width="218" height="166" as="geometry" />
        </mxCell>
        <mxCell id="XdFvXGQpU-g9N7wpAjeI-77" value="&lt;b style=&quot;&quot;&gt;&lt;font color=&quot;#33001a&quot;&gt;Object&lt;/font&gt;&lt;/b&gt;" style="rounded=0;whiteSpace=wrap;html=1;fillColor=none;strokeColor=#33001A;strokeWidth=3;" vertex="1" parent="1">
          <mxGeometry x="1030.5" y="1642" width="218" height="166" as="geometry" />
        </mxCell>
        <mxCell id="XdFvXGQpU-g9N7wpAjeI-78" value="&lt;b style=&quot;&quot;&gt;&lt;font color=&quot;#33001a&quot;&gt;Object&lt;/font&gt;&lt;/b&gt;" style="rounded=0;whiteSpace=wrap;html=1;fillColor=none;strokeColor=#33001A;strokeWidth=3;" vertex="1" parent="1">
          <mxGeometry x="970.5" y="1642.5" width="53" height="166" as="geometry" />
        </mxCell>
      </root>
    </mxGraphModel>
  </diagram>
</mxfile>
